<?xml version="1.0" encoding="utf-8"?>
<!-- Generator: Adobe Illustrator 28.0.0, SVG Export Plug-In . SVG Version: 6.00 Build 0)  -->
<svg version="1.1" id="Layer_1" xmlns="http://www.w3.org/2000/svg" xmlns:xlink="http://www.w3.org/1999/xlink" x="0px"
     y="0px"
     viewBox="0 0 387.8 616" style="enable-background:new 0 0 387.8 616;" xml:space="preserve">
<style type="text/css">
	.st0 {
    fill: #F9F9F9;
  }

  .myCircle {
    cursor: pointer !important;
    position: absolute;
  }

</style>
  <path class="st0" d="M79.8,565.8L79.8,565.8l-12.1-21.4h-5.3v30.3h5.1v-21.4h0.1l12.2,21.4h5.2v-30.3h-5.1V565.8z M157.4,544.4
			h-23.1v4.7h9v25.6h5.1v-25.6h9V544.4z M206.3,544.4h-5.1l-4.1,21.3H197l-7.1-21.3H187l-7.2,21.3h-0.1l-4.1-21.3h-5.2l5.8,30.3h5.4
			l6.7-20.8h0.1l6.8,20.8h5.3L206.3,544.4z M320.2,544.4H314l-11.3,13.5h-0.1v-13.5h-5.1v30.3h5.1v-9.8l2.7-3.5h0.1l9.8,13.3h6.1
			l-12.4-17L320.2,544.4z M135.3,593.2l-5.4,15.1h2.5l0.9-2.6h6.1l0.9,2.6h2.5l-5.4-15.1H135.3z M134,603.6l2.3-6.7h0l2.3,6.7H134z
			 M167,595.6h4.5v12.8h2.6v-12.8h4.5v-2.3H167L167,595.6L167,595.6z M186.7,616h2.8V587h-2.8V616z M205.1,599.5
			c-3.3-1.1-3.8-1.5-3.8-2.4c0-1,0.8-1.8,2.5-1.8c1.9,0,2.6,1,3,2.4l2.5-0.6c-0.5-2.9-2.8-4.1-5.5-4.1c-3.2,0-5,2-5,4.2
			c0,2,1.2,3.3,4.4,4.4c3.5,1.1,4,1.6,4,2.8c0,1.2-1.1,2-2.9,2c-2.3,0-3-1.2-3.4-3.7l-2.7,0.6c0.4,3.6,2.6,5.4,6.1,5.4
			c3.4,0,5.5-2,5.5-4.5C209.6,601.9,208.7,600.7,205.1,599.5z M215.4,595.6h4.5v12.8h2.6v-12.8h4.5v-2.3h-11.6V595.6z M239.8,599.5
			c-3.3-1.1-3.8-1.5-3.8-2.4c0-1,0.8-1.8,2.5-1.8c1.9,0,2.7,1,3,2.4l2.5-0.6c-0.5-2.9-2.8-4.1-5.5-4.1c-3.2,0-5,2-5,4.2
			c0,2,1.2,3.3,4.4,4.4c3.5,1.1,4,1.6,4,2.8c0,1.2-1.1,2-2.9,2c-2.3,0-3-1.2-3.4-3.7l-2.7,0.6c0.4,3.6,2.6,5.4,6.1,5.4
			c3.4,0,5.5-2,5.5-4.5C244.4,601.9,243.4,600.7,239.8,599.5z M282.9,553.8c0-5.8-3.9-9.2-9.6-9.4v4.7c2.7,0.3,4.5,1.7,4.5,4.7
			c0,3-1.8,4.5-4.5,4.7v9l3.8,7.1h5.7l-6.5-12.1C280.1,561.5,282.9,558.5,282.9,553.8z M260.5,574.7h5.1V563h4.5v-4.4h-4.5V549h4.5
			v-4.6h-9.6V574.7z M161,597.9c0-2.9-1.9-4.6-4.8-4.7v2.3c1.4,0.1,2.2,0.8,2.2,2.4c0,1.5-0.9,2.2-2.2,2.4v4.5l1.9,3.6h2.8l-3.3-6
			C159.6,601.8,161,600.3,161,597.9z M149.8,608.3h2.6v-5.8h2.3v-2.2h-2.3v-4.8h2.3v-2.3h-4.8V608.3z M218.8,559.3
			c0,10.7,5.4,15.3,11.5,15.9v-4.8c-3.5-0.7-6.1-4-6.1-11.2c0-6.5,2.7-9.8,6.1-10.6v-4.8C224.3,544.7,218.8,549.8,218.8,559.3z
			 M233.4,543.9v4.8c3.4,0.8,6.2,4.2,6.2,10.7c0,7.2-2.7,10.5-6.2,11.1v4.8c6-0.6,11.5-5.2,11.5-15.9
			C244.9,549.8,239.4,544.7,233.4,543.9z M102.2,574.7h7.9v-4.7h-2.8v-8.5h2.8v-4.5h-2.8v-7.8h2.8v-4.7h-7.9V574.7z M113.2,556.9
			v4.5h6.7v-4.5H113.2z M113.2,574.7h7.9v-4.7h-7.9V574.7z M113.2,549.1h7.9v-4.7h-7.9V549.1z M387.8,269.6l-1.8-3.1l-6.8,3.9
			c-1.1-1.3-2.8-2.1-4.7-2.1c-1.5,0-2.9,0.5-3.9,1.4l-43.4-32.4l26.6-62.9l30.7-24.3l-2.2-2.8L297.2,215l-0.2-0.2l-20.1-15l-2.1,2.8
			l19.6,14.6L255.6,248l26.8-74.9c0.4,0.1,0.9,0.1,1.3,0.1c1.4,0,2.7-0.5,3.8-1.3l17.4,13.5l2.2-2.8l-17.5-13.5
			c0.2-0.7,0.4-1.4,0.4-2.2c0-2.2-1.1-4.1-2.7-5.2l41.4-81.9l-1.9-1l-41.4,82c-0.5-0.1-1.1-0.2-1.6-0.2c-1.3,0-2.6,0.4-3.6,1.1
			l-34.8-26.9l0-0.2l1.6-40.6l16.6-13.4l-2.2-2.8L193,133c-1-0.9-2.2-1.5-3.6-1.8V0h-2.8v131.2c-1,0.1-1.9,0.5-2.7,1l-52.3-57.6
			l-2.6,2.4l52.4,57.6c-0.8,1.2-1.3,2.7-1.3,4.2c0,1.4,0.4,2.7,1,3.8L145,171.8l-0.2-0.4L91.3,68.4L88.2,70l54,104.1l-27.2,22
			c-1-0.6-2.1-1-3.3-1c-1.6,0-3.1,0.6-4.2,1.6L20,132l-2.1,2.9l11.4,8.5l0,0.1l37.9,91.4l-49.1,39.7l-16.3-10l-1.9,3l91.2,56.1
			l-70.4,51.6l-0.2-0.1c-2.4-1.6-5.5-1.8-8.1-0.5c-3.9,2-5.4,6.8-3.4,10.7c1,1.9,2.6,3.3,4.6,3.9c2,0.6,4.2,0.5,6.1-0.5
			c1.8-0.9,3.2-2.5,3.9-4.5l0.1-0.2h91.9l-53.9,49.8l2.4,2.6l56.7-52.4h12.3l-42,89.5l2.7,2.3l92.8-62.5v112.8h2.8V415.3l0.6,0.4
			l99,69.7l2-2.9l-54.6-38.4l-32.2-42.6l4.8-3.2l-2-2.9l-17.7,11.9v-23.7l0.5,0.2c0.3,0.2,0.7,0.2,1,0.2h34l0.1,0.1l79.3,60l2.7-2.3
			l-30.9-57.8h76.2l0.1,0.2c0.1,0.4,0.3,0.7,0.4,1c2,3.9,6.8,5.4,10.7,3.4c1.9-1,3.3-2.6,3.9-4.6c0.6-2,0.5-4.2-0.5-6.1
			c-2-3.9-6.8-5.4-10.7-3.4l-0.2,0.1l-0.2-0.2l-59.1-52.6l73.7-42.3c1.1,0.9,2.5,1.4,4,1.4c3.5,0,6.3-2.8,6.3-6.3c0-0.3,0-0.6-0.1-1
			L387.8,269.6z M143.9,177.3l0.2,0.4l38.9,75l-65.6-48.6c0.4-0.8,0.6-1.7,0.6-2.7c0-1-0.2-1.9-0.6-2.7L143.9,177.3z M34.9,147.4
			l70.8,52.4c-0.1,0.5-0.2,1.1-0.2,1.6c0,0.8,0.1,1.5,0.4,2.1l-35.6,28.8L34.9,147.4z M21.4,276.4l47.3-38.3l32.7,78.7l-6.9,4.5
			l-0.2-0.1L21.4,276.4z M23.7,379.1l-0.1-0.2c-0.1-0.3-0.2-0.6-0.4-0.9l-0.1-0.3l0.2-0.2L95.3,325v0l0.2-0.1l7.3-4.7l24.5,59
			L23.7,379.1L23.7,379.1z M130.3,377.5l-18.6-44.9l12.3,6.9c0,0,0,0,0,0c0,3.5,2.8,6.3,6.3,6.3c1.2,0,2.3-0.4,3.3-0.9l11.4,6.4
			L130.3,377.5z M136.4,338.1l20-7.3l-9.8,17.4l-10.7-6c0.4-0.8,0.6-1.7,0.6-2.7C136.6,339.1,136.6,338.6,136.4,338.1z M137.1,383.9
			h7.9l12.2,8.6l-39.7,33.2L137.1,383.9z M151.1,383.9h16.3l-7.5,6.2L151.1,383.9z M98.1,468.7l-1.1,0.7l18.4-39.1l43.6-36.5
			l4.7,3.3l-0.3,0.3l-65.1,71.2L98.1,468.7z M183.2,411.4l-77.4,52.1l59.6-65.2l18.2,12.8L183.2,411.4z M186.7,409l-24.9-17.6l9-7.5
			h14.5c0.3,0,0.7-0.1,1-0.2l0.5-0.2L186.7,409L186.7,409z M186.7,379.6l-0.5-0.2c-0.3-0.2-0.7-0.2-1-0.2h-51.7l14.6-26l0.3,0.2
			l38.3,21.6L186.7,379.6L186.7,379.6z M186.7,370.8l-18.5-10.4l18.5-14.7V370.8z M186.7,342.9l-20.5,16.3l-16.4-9.2l0.2-0.3
			l36.7-65.5L186.7,342.9L186.7,342.9z M186.7,276.9L158.1,328l-22.4,8.2c-1.1-1.8-3.1-2.9-5.3-2.9c-2.2,0-4.1,1.1-5.2,2.8
			l-15.6-8.8l-3.8-9l0.2-0.2l80.7-52L186.7,276.9L186.7,276.9z M186.7,261.8l-0.2,0.1l-82.2,53l-32.8-79.1l36.3-29.4
			c1.1,0.8,2.4,1.3,3.8,1.3c1.2,0,2.4-0.4,3.3-1l71.7,53.1L186.7,261.8L186.7,261.8z M186.7,252.2l-40-77.1l0.2-0.2l36.6-29.6
			c0.9,0.6,2,1.1,3.1,1.2L186.7,252.2L186.7,252.2z M202.6,402.6l28.3,37.4l-41-28.9L202.6,402.6z M348,179.2l-23.7,56l-24.2-18.1
			L348,179.2z M243.8,274.7l-12.3-11c0.5-0.9,0.7-1.9,0.7-2.9c0-1.3-0.4-2.4-1-3.4l29.1-28.7L243.8,274.7z M283.7,316.7l-37.1,11.8
			l-6.3-11.9l19-23.5l24.6,21.9c-0.1,0.4-0.2,0.9-0.2,1.3C283.7,316.5,283.7,316.6,283.7,316.7z M220.1,258.3
			c-0.3,0.8-0.5,1.6-0.5,2.4c0,1.4,0.5,2.7,1.3,3.8l-16.1,15.9c-0.8-0.5-1.7-0.9-2.7-0.9c-0.9,0-1.7,0.2-2.4,0.7l-10.1-10.1
			l19.7-21.4L220.1,258.3z M211.7,246.1l28.4-30.8l-1.2,31.4l-9.1,9c-1.1-0.8-2.4-1.3-3.8-1.3c-1.3,0-2.6,0.4-3.6,1.1L211.7,246.1z
			 M206.1,282.1l16.3-16c1,0.7,2.2,1.1,3.5,1.1c1.1,0,2.2-0.3,3.1-0.8l13.5,12l-9.1,25.5l-5.1-9.5l-3.1,1.7l6.2,11.5l-2.6,2.1
			L206,286.6c0.4-0.7,0.7-1.5,0.7-2.4C206.7,283.5,206.4,282.7,206.1,282.1z M232.3,309.3l11,20.6l-37.8,20.4
			c-0.3-0.3-0.6-0.6-0.9-0.9l18.8-33.1L232.3,309.3z M239.2,314.6l-4.5-8.4l9.5-26.5l13.5,12L239.2,314.6z M280.4,172.3l-18.6,51.8
			L241,244.6l1.2-31.6l0.1-0.1l37.7-40.8C280.2,172.1,280.3,172.2,280.4,172.3z M241.6,176.8l-10.5-7.8l9.4-11.4
			c0.5,0.4,1.1,0.7,1.8,0.9L241.6,176.8z M242.4,209.7l1.1-27.1l14.2,10.6L242.4,209.7z M245.1,139.2l32.7,25.4
			c-0.3,0.7-0.5,1.6-0.5,2.4c0,1.4,0.4,2.6,1.1,3.6L259.7,191l-0.5-0.4l0.3-0.4l-15.8-11.8l0.8-19.9c2.1-0.5,3.6-2.3,3.6-4.6
			c0-2.1-1.4-3.9-3.3-4.4L245.1,139.2z M244.7,95.8l-1.5,37.4l-22.9-17.7L244.7,95.8z M195.1,135.9l22.4-18.1l25.6,19.8l-0.5,11.7
			c-2.2,0.4-4,2.3-4,4.6c0,0.7,0.2,1.4,0.4,2l-9.8,11.9l-34.4-25.6c0.5-1,0.8-2.1,0.8-3.3C195.7,137.8,195.5,136.8,195.1,135.9z
			 M189.5,146.4c1.2-0.2,2.3-0.8,3.2-1.5l34.4,25.6l-37.6,45.6L189.5,146.4L189.5,146.4L189.5,146.4z M189.5,257.7L189.5,257.7v-0.2
			v-37.9l0.1-0.1l39.2-47.6l12.6,9.4l-1.2,31l-0.1,0.1l-50.6,54.8L189.5,257.7L189.5,257.7z M189.5,273l8.6,8.6
			c-0.5,0.7-0.8,1.6-0.8,2.6c0,1,0.3,1.9,0.8,2.7l-8.7,8.5L189.5,273L189.5,273z M189.5,298.5l10.2-10.1c0.7,0.4,1.4,0.6,2.2,0.6
			c0.9,0,1.8-0.3,2.5-0.8l22.5,22.7l-37.5,29.9V298.5z M189.5,343.5l28.3-22.5L202,348.7c0,0,0,0,0,0c-2.6,0-4.7,2.1-4.7,4.7
			c0,0.5,0.1,0.9,0.2,1.4l-8,4.4L189.5,343.5L189.5,343.5L189.5,343.5z M191,379.1c-0.3,0-0.7,0.1-1,0.2l-0.5,0.2v-18.1l9.1-4.9
			c0.9,0.9,2.1,1.5,3.4,1.5c2.6,0,4.7-2.1,4.7-4.7c0-0.4-0.1-0.8-0.1-1.1l37.8-20.5l4.5,8.4l-0.2,0.2l-41,38.7L191,379.1L191,379.1z
			 M210.8,379.1l39.1-37l19.8,37H210.8z M300.3,436.5l-69.4-52.6h41.3L300.3,436.5z M353.5,377l-0.2,0.2c-0.3,0.5-0.6,1.1-0.8,1.7
			l-0.1,0.2h-78.8l-26-48.7l0.4-0.1l36.3-11.6c0.8,1.4,2.3,2.3,4,2.3c0.7,0,1.3-0.1,1.9-0.4L353.5,377z M368.6,276.6l-74.5,42.7
			l-1.4-1.2c0.2-0.5,0.4-1.1,0.4-1.8c0-2.6-2.1-4.7-4.7-4.7c-0.8,0-1.6,0.2-2.2,0.6l-24.6-21.9l0.2-0.3l24.7-30.5l-1.6-1.3
			L259.9,289l-14.4-12.8l7.8-21.8l0.1-0.1l43.9-34.8l25.6,19.1l-15.5,36.7l3.3,1.4l15.2-35.9l42.7,31.9c-0.2,0.6-0.3,1.3-0.3,2
			C368.2,275.4,368.4,276,368.6,276.6z"/>
  <circle cx="17" cy="381" r="10" fill="white" class=" myCircle myCircleLeft">
    <animate attributeName="r" from="8" to="20" dur="1.5s" begin="0s" repeatCount="indefinite"/>
    <animate attributeName="opacity" from="1" to="0" dur="1.5s" begin="0s" repeatCount="indefinite"/>
  </circle>
  <text x="0" y="400" font-size="10" fill="white" text-anchor="start" alignment-baseline="middle">METHOD
  </text>
  <circle cx="186" cy="140" r="10" fill="white" class="myCircle myCircleTop">
    <animate attributeName="r" from="8" to="20" dur="1.5s" begin="0s" repeatCount="indefinite"/>
    <animate attributeName="opacity" from="1" to="0" dur="1.5s" begin="0s" repeatCount="indefinite"/>
  </circle>
  <text x="360" y="400" font-size="10" fill="white" text-anchor="middle" alignment-baseline="middle">SERVICE
  </text>
  <circle cx="359" cy="380" r="10" fill="white" class="myCircle myCircleRight">
    <animate attributeName="r" from="8" to="20" dur="1.5s" begin="0s" repeatCount="indefinite"/>
    <animate attributeName="opacity" from="1" to="0" dur="1.5s" begin="0s" repeatCount="indefinite"/>
  </circle>
</svg>
