<?xml version="1.0" standalone="no"?>
<!DOCTYPE svg PUBLIC "-//W3C//DTD SVG 20010904//EN"
 "http://www.w3.org/TR/2001/REC-SVG-20010904/DTD/svg10.dtd">
<svg version="1.0" xmlns="http://www.w3.org/2000/svg"
 width="593.000000pt" height="620.000000pt" viewBox="0 0 593.000000 620.000000"
 preserveAspectRatio="xMidYMid meet">

<g transform="translate(0.000000,620.000000) scale(0.100000,-0.100000)"
fill="#FFFFFF" stroke="none">
<path d="M1462 6179 c-65 -25 -141 -98 -177 -168 -57 -114 -112 -398 -245
-1271 -28 -184 -77 -499 -110 -700 -79 -485 -90 -582 -97 -800 -3 -124 -9
-192 -18 -205 -7 -12 -171 -100 -387 -208 -206 -102 -387 -196 -401 -207 -15
-12 -27 -31 -27 -43 0 -32 543 -1468 669 -1770 94 -226 341 -768 359 -789 8
-10 24 -18 35 -18 12 0 147 49 301 109 417 162 897 340 1391 516 773 275 1367
503 1715 658 204 91 651 310 810 397 74 41 208 118 298 172 332 200 352 216
352 287 0 38 -106 339 -209 596 -42 105 -254 608 -471 1119 -305 716 -400 931
-416 938 -18 9 -52 -4 -190 -70 -93 -44 -293 -132 -444 -197 -151 -64 -348
-150 -438 -191 -90 -41 -167 -74 -171 -74 -5 0 -37 35 -72 77 -35 43 -118 134
-183 203 -65 69 -194 213 -285 319 -611 716 -582 685 -926 991 -280 249 -328
287 -395 318 -78 35 -195 40 -268 11z m285 -170 c33 -28 47 -74 47 -154 1 -63
-4 -88 -21 -120 -73 -136 -236 -167 -324 -62 -51 61 -65 191 -26 247 51 77
267 136 324 89z m490 -476 c309 -330 388 -417 679 -748 116 -132 280 -312 363
-400 84 -88 157 -167 162 -177 7 -14 0 -20 -49 -38 -147 -55 -748 -306 -1102
-460 -468 -203 -818 -365 -1109 -512 -118 -59 -216 -106 -218 -104 -7 7 20
336 53 621 41 369 71 581 169 1222 41 264 80 529 86 587 7 58 15 106 19 106 3
0 14 -13 23 -29 55 -93 167 -161 265 -161 193 1 318 107 368 313 9 37 18 67
19 67 1 0 123 -129 272 -287z m2713 -1305 c90 -227 294 -710 453 -1073 356
-810 408 -960 359 -1022 -37 -47 -532 -326 -877 -494 -481 -234 -897 -403
-1864 -754 -676 -245 -870 -318 -1146 -430 -264 -106 -619 -261 -718 -313 -37
-19 -69 -33 -71 -31 -2 2 -218 544 -481 1204 -263 660 -482 1208 -487 1217
-11 23 -32 13 492 231 767 319 1889 812 2743 1204 632 290 1247 580 1339 632
40 22 78 40 84 41 6 0 84 -186 174 -412z"/>
<path d="M3828 3914 c-84 -45 -126 -299 -77 -460 47 -153 147 -291 241 -334
57 -26 91 -25 124 3 22 20 27 34 35 102 11 113 11 293 -1 316 -17 30 -51 23
-129 -27 -95 -61 -94 -80 6 -76 l71 3 6 -54 c9 -66 -2 -170 -19 -193 -17 -25
-51 -12 -111 40 -109 96 -155 208 -155 377 0 116 11 177 38 202 10 8 43 21 73
29 44 10 56 17 58 35 7 45 -100 70 -160 37z"/>
<path d="M3474 3714 c-5 -22 -8 -41 -7 -44 1 -3 31 -122 68 -264 36 -143 65
-268 63 -278 -3 -17 -36 22 -297 354 -89 113 -128 132 -151 73 -8 -20 -3 -54
20 -145 74 -293 159 -523 212 -573 16 -16 32 -26 35 -24 3 3 8 22 13 42 7 32
0 57 -54 193 -84 209 -127 332 -118 332 4 0 84 -92 177 -205 144 -174 176
-207 208 -217 20 -6 40 -8 45 -4 17 17 0 109 -77 422 -68 274 -86 335 -106
354 l-24 22 -7 -38z"/>
<path d="M2819 3423 c-86 -44 -94 -51 -94 -77 0 -24 6 -30 35 -40 23 -7 37
-20 43 -36 123 -386 165 -524 161 -531 -3 -5 -13 -9 -23 -9 -9 0 -27 -9 -40
-21 -20 -19 -21 -23 -8 -42 34 -52 171 -42 232 16 48 46 52 70 16 84 -16 6
-40 8 -54 6 -36 -7 -48 17 -101 208 -25 91 -55 192 -66 224 -29 85 -27 130 10
167 40 39 48 73 22 87 -30 16 -31 16 -133 -36z"/>
<path d="M2422 3202 c-15 -27 -25 -72 -34 -150 -6 -62 -15 -112 -19 -112 -4 0
-40 36 -79 80 -101 111 -153 126 -183 51 -15 -36 -14 -46 23 -202 56 -242 153
-503 198 -535 21 -14 23 -13 38 19 15 32 15 37 -44 228 -69 221 -112 369 -112
382 0 5 36 -25 80 -67 44 -42 86 -76 94 -76 27 0 55 49 61 108 3 31 9 80 12
107 l6 50 12 -30 c7 -16 52 -131 101 -255 66 -169 95 -232 118 -253 28 -27 31
-28 43 -11 20 27 16 69 -17 176 -46 155 -77 236 -132 347 -46 93 -112 181
-136 181 -5 0 -18 -17 -30 -38z"/>
<path d="M1762 2906 c-39 -45 -56 -141 -50 -285 8 -172 63 -300 184 -427 54
-56 66 -64 98 -64 52 0 75 15 97 65 29 66 34 147 14 245 -55 271 -190 500
-293 500 -11 0 -33 -15 -50 -34z m113 -101 c78 -122 135 -313 135 -457 0 -48
-4 -89 -9 -92 -16 -10 -97 72 -128 131 -50 93 -66 171 -67 313 -1 179 11 197
69 105z"/>
<path d="M4103 2790 c-36 -15 -38 -52 -8 -138 26 -74 167 -324 219 -387 19
-23 27 -27 36 -18 9 8 -7 69 -71 260 -96 287 -110 309 -176 283z"/>
<path d="M1311 2763 c-37 -30 -74 -155 -79 -264 -8 -182 50 -339 170 -458 115
-115 171 -108 265 30 26 39 33 103 15 134 -8 15 -13 11 -37 -31 -42 -74 -64
-94 -100 -94 -54 0 -106 47 -144 129 -47 102 -61 163 -61 268 0 128 14 187 51
214 35 24 37 52 7 73 -29 21 -61 20 -87 -1z"/>
<path d="M3790 2645 c-22 -27 -5 -92 94 -369 53 -148 96 -271 96 -274 0 -20
-97 96 -252 301 -163 216 -182 238 -206 235 -80 -9 -49 -226 90 -637 65 -189
76 -215 101 -227 27 -14 28 -14 41 17 12 28 12 39 -1 73 -114 314 -198 585
-190 609 2 7 15 -6 29 -28 39 -62 427 -545 437 -545 5 0 16 -3 24 -6 23 -8 57
31 57 66 0 17 -45 162 -101 323 -56 160 -112 325 -126 366 -24 69 -51 111 -72
111 -5 0 -14 -7 -21 -15z"/>
<path d="M3062 2355 c-41 -35 -67 -147 -58 -255 13 -163 73 -345 168 -518 60
-108 94 -142 144 -142 74 0 110 41 147 168 31 103 -11 329 -93 498 -49 101
-151 243 -189 263 -35 19 -87 13 -119 -14z m149 -167 c122 -153 204 -437 165
-570 -29 -100 -60 -101 -123 -5 -87 133 -130 246 -172 454 -20 95 -20 95 1
149 l21 54 39 -23 c22 -12 53 -38 69 -59z"/>
<path d="M2552 2128 c-33 -36 -44 -77 -44 -163 -1 -171 85 -420 209 -606 48
-72 97 -104 144 -92 77 19 116 136 98 290 -37 302 -209 593 -350 593 -24 0
-42 -7 -57 -22z m166 -192 c91 -145 142 -311 142 -458 0 -95 -8 -108 -48 -79
-73 52 -141 181 -201 382 -34 117 -39 194 -16 240 16 29 16 29 44 13 15 -9 51
-53 79 -98z"/>
<path d="M4391 2054 c-45 -57 -15 -134 53 -134 43 0 61 22 61 75 0 79 -70 115
-114 59z"/>
<path d="M2186 1955 c-137 -47 -195 -270 -95 -362 29 -26 88 -43 152 -43 105
0 177 -80 177 -198 0 -68 -18 -99 -113 -191 -63 -61 -64 -81 -6 -81 85 0 170
67 200 157 18 54 7 188 -21 250 -42 98 -135 153 -255 153 -69 0 -105 27 -105
76 0 62 46 131 110 164 31 16 81 60 68 60 -3 0 -21 6 -39 14 -29 12 -40 12
-73 1z"/>
</g>
</svg>
